<svg version="1" xmlns="http://www.w3.org/2000/svg" width="544" height="544" viewBox="0 0 408.000000 408.000000"><path d="M151.5 95c-2.7.4-12.2 3.3-20.9 6.4-26.4 9.3-35 10.5-44 6.1-6.2-3-8.6-2.2-10.4 3.3l-1.4 4.2H64.5l-31.4 97.8c-17.3 53.7-31.6 98.3-31.9 98.9-.3 1 40.6 1.3 202.3 1.3 161.7 0 202.6-.3 202.3-1.3-.3-.6-14.6-45.2-31.9-98.9L342.5 115h-5.1c-4.8 0-5.2-.2-5.9-2.8-1.5-6.3-5.3-7.6-12-4.2-7.9 4-17.2 2.5-44.5-7.1l-17.5-6.2-12-.1c-10.9-.1-12.5.2-17.6 2.5-6.6 3.1-11.9 7.6-16 13.6-2.9 4.2-3.1 4.3-8.4 4.3-5.3 0-5.5-.1-8.4-4.3-7.3-10.7-16.8-15.8-30-16.3-4.7-.1-10.8.1-13.6.6zm26 9.2c6.2 3.2 13 10.3 15.7 16.5 2 4.6 2 5.3.9 67.2-.6 34.4-1.4 71.9-1.7 83.2l-.6 20.7-7.2-3.8c-19.6-10.4-35.3-10.3-68.5.5-23.7 7.7-37.2 9.7-53.5 7.7-9.4-1.2-25-5.4-26.1-7.2-.3-.5 9.9-40.2 22.7-88.4l23.2-87.5 3 1.6c4.1 2.1 18 2.1 26.6-.1 3.6-.9 12.8-4 20.5-6.7 17.5-6.4 19.9-6.9 31-6.5 7.4.2 9.9.7 14 2.8zm95.5 3.1c8.5 3.1 18.4 6.3 22 7.3 8.6 2.2 22.5 2.2 26.6.1l3.1-1.6 23.2 87.5c12.7 48.1 22.9 87.9 22.6 88.4-1.1 1.8-16.6 6-26.1 7.2-16.2 2-29.7 0-53.4-7.7-33.1-10.8-49-10.9-68.6-.5l-7.2 3.8-.6-22.7c-.3-12.4-1.1-49.9-1.7-83.2-1.1-59.9-1.1-60.7.9-65.2 3.7-8.3 12.2-15.8 21.2-18.8 1.4-.5 7-.7 12.5-.5 9.1.4 11.4.9 25.5 5.9zM72.6 123.7c-.6 2-43 162.1-44.1 166.6-.7 2.5-.4 2.9 4.9 5.2 8.3 3.7 18.4 6.2 29.4 7.5 7.9.9 12.3.9 23.2-.4 11.5-1.3 16.5-2.5 33.7-8 17.7-5.8 21.4-6.7 30.5-7.2 7.9-.5 11.8-.3 16.8 1 9.3 2.4 18 6.9 23.6 12.3l4.9 4.8-46.8.3c-25.8.1-67.4.1-92.6 0l-45.7-.3 29.5-91.8c25-77.6 29.8-91.7 31.4-91.7 1.3 0 1.7.5 1.3 1.7zM208 214v92h-9V122h9v92zm159.1-.3l29.6 91.8-45.8.3c-25.2.1-66.8.1-92.6 0l-46.8-.3 4.9-4.8c5.6-5.4 14.3-9.9 23.6-12.3 5-1.3 8.9-1.5 17-1 9.2.6 12.9 1.4 30.5 7.2 29.2 9.5 45.8 11.2 67.5 6.7 8.7-1.7 22.9-7 23.6-8.6.3-.9-41-158.8-44.2-169-.4-1.2 0-1.7 1.3-1.7 1.6 0 6.3 13.8 31.4 91.7z"/></svg>